<?xml version="1.0" standalone="no"?>
<!DOCTYPE svg PUBLIC "-//W3C//DTD SVG 1.1//EN" "http://www.w3.org/Graphics/SVG/1.1/DTD/svg11.dtd" >
<svg xmlns="http://www.w3.org/2000/svg" xmlns:xlink="http://www.w3.org/1999/xlink" version="1.1">
<metadata></metadata>
<defs>
<font id="national_championmedium" horiz-adv-x="1578" >
<font-face units-per-em="2048" ascent="1638" descent="-410" />
<missing-glyph horiz-adv-x="645" />
<glyph horiz-adv-x="0" />
<glyph horiz-adv-x="682" />
<glyph unicode=" "  horiz-adv-x="645" />
<glyph unicode="&#x09;" horiz-adv-x="645" />
<glyph unicode="&#xa0;" horiz-adv-x="645" />
<glyph unicode="!" horiz-adv-x="612" d="M82 0v338h401v-338h-401zM98 496v1358h369v-1358h-369z" />
<glyph unicode="&#x22;" horiz-adv-x="612" d="M29 1327v527h220v-527h-220zM361 1327v527h222v-527h-222z" />
<glyph unicode="#" horiz-adv-x="1622" d="M58 830v247h334v252h-334v247h334v278h298v-278h241v278h298v-278h334v-247h-334v-252h334v-247h-334v-280h-298v280h-241v-280h-298v280h-334zM692 1077h239v252h-239v-252z" />
<glyph unicode="$" horiz-adv-x="1613" d="M127 307v359h343v-227l133 -132h125v472h-285l-307 305v463l307 307h285v234h187v-234h278l307 -307v-325h-342v194l-132 133h-111v-458h305l305 -305v-479l-305 -307h-305v-234h-187v234h-294zM490 1224l133 -133h105v458h-105l-133 -133v-192zM915 307h125l131 132v207 l-131 133h-125v-472z" />
<glyph unicode="%" horiz-adv-x="2655" d="M67 890v777l185 187h507l183 -187v-777l-183 -184h-507zM358 995l49 -49h196l47 49v570l-47 49h-196l-49 -49v-570zM619 0l1091 1854h325l-1091 -1854h-325zM1716 185v777l185 187h508l182 -187v-777l-182 -185h-508zM2008 289l49 -49h196l47 49v570l-47 49h-196l-49 -49 v-570z" />
<glyph unicode="&#x26;" horiz-adv-x="1827" d="M127 356v419l258 265l-156 147v385l281 282h574l285 -282v-301h-321v169l-129 132h-211l-129 -132v-138l748 -708l6 7v365h314v-496l-89 -94l132 -124v-252h-203l-154 145l-140 -145h-717zM479 472l175 -180h403l56 62l-485 456l-149 -160v-178z" />
<glyph unicode="'" horiz-adv-x="278" d="M29 1327v527h220v-527h-220z" />
<glyph unicode="(" horiz-adv-x="685" d="M127 -116v1670l300 300h236v-305h-40l-127 -127v-1406l127 -127h40v-305h-236z" />
<glyph unicode=")" horiz-adv-x="683" d="M20 -111h40l127 127v1406l-127 127h-40v305h236l301 -300v-1670l-301 -300h-236v305z" />
<glyph unicode="*" horiz-adv-x="1041" d="M58 1678l89 283l225 -73v236h296v-236l225 73l89 -283l-218 -71l135 -189l-236 -176l-142 196l-145 -196l-236 176l136 189z" />
<glyph unicode="+" d="M136 632v189h554v559h198v-559h552v-189h-552v-608h-198v608h-554z" />
<glyph unicode="," horiz-adv-x="507" d="M62 0v345h388v-345l-207 -336h-78l22 336h-125z" />
<glyph unicode="-" horiz-adv-x="821" d="M45 719v307h732v-307h-732z" />
<glyph unicode="." horiz-adv-x="494" d="M58 0v378h378v-378h-378z" />
<glyph unicode="/" horiz-adv-x="1342" d="M7 0l928 1854h372l-929 -1854h-371z" />
<glyph unicode="0" horiz-adv-x="1638" d="M127 307v1240l307 307h770l308 -307v-1240l-308 -307h-770zM496 439l134 -132h378l132 132v977l-132 133h-378l-134 -133v-977z" />
<glyph unicode="1" horiz-adv-x="972" d="M22 0v307h307v1082l-264 -176v332l345 309h291v-1547h250v-307h-929z" />
<glyph unicode="2" horiz-adv-x="1404" d="M47 0v316l915 895v205l-134 133h-263l-133 -133v-205h-347v336l307 307h634l307 -307v-456l-794 -742h821v-349h-1313z" />
<glyph unicode="3" horiz-adv-x="1602" d="M82 307v336h348v-204l133 -132h412l131 132v220l-122 125h-436v300h411l105 105v227l-131 133h-330l-136 -133v-163h-347v294l307 307h702l307 -307v-414l-154 -156l194 -200v-470l-307 -307h-779z" />
<glyph unicode="4" horiz-adv-x="1469" d="M53 579v296l762 988h349v-1004h261v-280h-261v-299h209v-280h-768v280h216v299h-768zM378 857h428v563z" />
<glyph unicode="5" horiz-adv-x="1596" d="M105 307v347h347v-215l133 -132h403l132 132v264l-123 125h-561l-276 272v754h1267v-305h-897v-338l67 -67h610l284 -285v-552l-307 -307h-772z" />
<glyph unicode="6" horiz-adv-x="1609" d="M127 307v1240l307 307h730l307 -307v-291h-342v160l-134 133h-365l-134 -133v-412l170 149h534l307 -307v-539l-307 -307h-766zM496 439l134 -132h374l131 132v276l-131 133h-316l-192 -178v-231z" />
<glyph unicode="7" horiz-adv-x="1420" d="M36 1235v619h1329v-356l-590 -1498h-390l606 1503v46h-648v-314h-307z" />
<glyph unicode="8" horiz-adv-x="1676" d="M127 307v474l196 196l-156 158v412l307 307h728l307 -307v-412l-158 -158l198 -196v-474l-309 -307h-806zM510 439l131 -132h392l133 132v227l-131 129h-396l-129 -129v-227zM554 1215l112 -115h342l114 115v201l-134 133h-302l-132 -133v-201z" />
<glyph unicode="9" horiz-adv-x="1618" d="M118 1000v547l307 307h759l307 -307v-1240l-307 -307h-757l-307 307v290h347v-158l134 -132h387l134 132v414l-191 -163h-506zM488 1131l133 -134h298l201 178v241l-134 133h-365l-133 -133v-285z" />
<glyph unicode=":" horiz-adv-x="547" d="M65 0v352h416v-352h-416zM65 1133v352h416v-352h-416z" />
<glyph unicode=";" horiz-adv-x="547" d="M65 1133v352h416v-352h-416zM71 0v345h388v-345l-207 -336h-78l22 336h-125z" />
<glyph unicode="&#x3c;" d="M147 628v196l1287 623v-209l-1091 -508v-7l1093 -512v-211z" />
<glyph unicode="=" d="M138 343v189h1302v-189h-1302zM138 922v189h1302v-189h-1302z" />
<glyph unicode="&#x3e;" d="M147 1238v209l1289 -626v-195l-1287 -626v211l1091 510v7z" />
<glyph unicode="?" horiz-adv-x="1429" d="M58 1211v336l307 307h603l308 -305v-443l-417 -418v-236h-400v325l449 456v158l-133 132h-214l-134 -132v-180h-369zM459 0v338h400v-338h-400z" />
<glyph unicode="@" horiz-adv-x="2288" d="M149 0v1547l307 307h1372l307 -307v-1133l-236 -251h-370l-176 189l-160 -161h-336l-182 183v775l182 178h327l125 -120v120h267v-828l87 -105h71l69 78v944l-133 133h-1053l-134 -133v-1285l134 -131h1507v-307h-1668zM957 528l80 -78h134l125 131v343l-143 149h-116 l-80 -80v-465z" />
<glyph unicode="A" horiz-adv-x="1978" d="M0 0v307h227l492 1242h-211v305h968v-305h-216l492 -1242h227v-307h-801v292h209l-67 178h-661l-67 -178h207v-292h-799zM761 748h457l-230 617z" />
<glyph unicode="B" horiz-adv-x="1616" d="M67 0v307h187v1242h-183v305h1095l308 -307v-425l-143 -140l198 -192v-483l-307 -307h-1155zM623 307h401l134 132v247l-134 127h-401v-506zM623 1113h363l116 116v187l-134 133h-345v-436z" />
<glyph unicode="C" horiz-adv-x="1593" d="M127 307v1240l307 307h768l307 -307v-403h-345v272l-131 133h-403l-134 -133v-977l134 -132h403l133 132v262h346v-394l-308 -307h-770z" />
<glyph unicode="D" horiz-adv-x="1638" d="M67 0v307h182v1242h-182v305h1137l308 -307v-1240l-308 -307h-1137zM619 307h396l134 132v977l-134 133h-396v-1242z" />
<glyph unicode="E" horiz-adv-x="1540" d="M67 0v307h216v1242h-214v305h1394v-572h-305v267h-506v-454h552v-289h-552v-499h526v252h305v-559h-1416z" />
<glyph unicode="F" horiz-adv-x="1498" d="M67 0v307h216v1242h-214v305h1407v-563h-296v267h-528v-449h548v-305h-548v-497h243v-307h-828z" />
<glyph unicode="G" horiz-adv-x="1638" d="M127 307v1240l307 307h786l307 -307v-376h-354v245l-133 133h-410l-134 -133v-977l134 -132h423l134 132v289h-359v278h706v-699l-307 -307h-793z" />
<glyph unicode="H" horiz-adv-x="1878" d="M78 0v307h216v1242h-214v305h781v-305h-198v-458h550v458h-196v305h782v-305h-214v-1242h216v-307h-786v307h198v465h-550v-465h201v-307h-786z" />
<glyph unicode="I" horiz-adv-x="899" d="M67 0v307h211v1242h-209v305h788v-305h-209v-1242h211v-307h-792z" />
<glyph unicode="J" horiz-adv-x="1453" d="M13 307v437h363v-305l134 -132h205l133 132v1110h-249v305h835v-305h-214v-1242l-307 -307h-592z" />
<glyph unicode="K" horiz-adv-x="1941" d="M67 0v307h211v1242h-209v305h786v-305h-207v-603l552 603h-212v305h857v-305h-213l-419 -443l488 -799h205v-307h-851v307h234l-330 550l-311 -336v-214h211v-307h-792z" />
<glyph unicode="L" horiz-adv-x="1493" d="M67 0v307h211v1242h-207v305h815v-305h-238v-1242h505v325h305v-632h-1391z" />
<glyph unicode="M" horiz-adv-x="2239" d="M67 0v307h216v1242h-214v305h574l490 -817l488 817h576v-305h-216v-1242h216v-307h-792v307h213v962l-485 -806l-487 806v-962h213v-307h-792z" />
<glyph unicode="N" horiz-adv-x="1914" d="M67 0v307h216v1242h-214v305h568l670 -1202v897h-212v305h788v-305h-213v-1549h-354l-670 1202v-895h207v-307h-786z" />
<glyph unicode="O" horiz-adv-x="1625" d="M107 307v1240l307 307h797l307 -307v-1240l-307 -307h-797zM476 439l134 -132h405l131 132v977l-131 133h-405l-134 -133v-977z" />
<glyph unicode="P" horiz-adv-x="1553" d="M67 0v307h211v1242h-211v305h1144l307 -307v-590l-307 -307h-563v-343h211v-307h-792zM648 955h367l134 134v327l-134 133h-367v-594z" />
<glyph unicode="Q" horiz-adv-x="1658" d="M127 307v1240l307 307h790l308 -307v-1189l-65 -64l267 -263l-225 -222l-265 262l-71 -71h-739zM496 439l134 -132h376l-325 321l223 222l271 -267v833l-131 133h-414l-134 -133v-977z" />
<glyph unicode="R" horiz-adv-x="1729" d="M67 0v307h211v1242h-211v305h1137l308 -307v-461l-190 -189l187 -185v-405h201v-307h-572v603l-118 118h-372v-414h211v-307h-792zM648 1026h367l127 127v263l-134 133h-360v-523z" />
<glyph unicode="S" horiz-adv-x="1562" d="M96 307v359h349v-227l134 -132h385l131 132v207l-131 133h-539l-305 307v461l305 307h708l307 -307v-325h-347v194l-134 133h-336l-133 -133v-198l133 -134h537l307 -307v-470l-307 -307h-757z" />
<glyph unicode="T" horiz-adv-x="1662" d="M36 1233v621h1591v-621h-305v316h-305v-1242h223v-307h-815v307h223v1242h-305v-316h-307z" />
<glyph unicode="U" horiz-adv-x="1832" d="M20 1549v305h781v-305h-196v-1110l134 -132h356l132 132v1110h-199v305h784v-305h-216v-1242l-307 -307h-748l-307 307v1242h-214z" />
<glyph unicode="V" horiz-adv-x="1894" d="M0 1549v305h835v-305h-216l327 -959l327 959h-213v305h834v-305h-247l-449 -1242h224v-307h-948v307h218l-447 1242h-245z" />
<glyph unicode="W" horiz-adv-x="2940" d="M16 1547v307h825v-307h-215l307 -970l336 970h-214v307h833v-307h-216l336 -970l309 970h-216v307h824v-307h-231l-417 -1240h212v-307h-904v307h207l-321 895l-318 -895h209v-307h-906v307h210l-419 1240h-231z" />
<glyph unicode="X" horiz-adv-x="2063" d="M49 0v307h231l541 637l-509 605h-236v305h870v-305h-216l303 -356l300 356h-216v305h871v-305h-236l-510 -605l541 -637h232v-307h-875v307h218l-325 388l-325 -388h218v-307h-877z" />
<glyph unicode="Y" horiz-adv-x="1990" d="M7 1549v305h814v-305h-213l387 -603l390 603h-216v305h814v-305h-238l-565 -854v-388h218v-307h-808v307h220v388l-567 854h-236z" />
<glyph unicode="Z" horiz-adv-x="1446" d="M49 0v352l988 1197h-647v-300h-308v605h1307v-351l-957 -1196h659v321h307v-628h-1349z" />
<glyph unicode="[" horiz-adv-x="747" d="M127 -416v2270h599v-305h-230v-1660h230v-305h-599z" />
<glyph unicode="\" horiz-adv-x="1335" d="M29 1854h372l928 -1854h-372z" />
<glyph unicode="]" horiz-adv-x="747" d="M22 -111h230v1660h-230v305h599v-2270h-599v305z" />
<glyph unicode="^" horiz-adv-x="950" d="M58 1685l263 463h318l254 -463h-247l-172 307l-173 -307h-243z" />
<glyph unicode="_" horiz-adv-x="732" d="M0 0h732v-307h-732v307z" />
<glyph unicode="`" horiz-adv-x="1335" d="M706 2146h247l260 -463h-254z" />
<glyph unicode="a" horiz-adv-x="1520" d="M0 0v307h138l354 835h-145v305h826v-305h-145l354 -835h138v-307h-625v260h131l-42 114h-448l-42 -114h129v-260h-623zM614 590h290l-145 392z" />
<glyph unicode="b" horiz-adv-x="1304" d="M36 0v307h138v835h-134v305h924l231 -234v-314l-118 -118l170 -171v-376l-234 -234h-977zM523 303h254l105 95v136l-105 94h-254v-325zM523 866h241l91 82v105l-105 98h-227v-285z" />
<glyph unicode="c" horiz-adv-x="1291" d="M93 234v979l234 234h644l233 -234v-360h-311v187l-105 102h-249l-105 -102v-630l105 -103h249l105 103v182h311v-358l-233 -234h-644z" />
<glyph unicode="d" horiz-adv-x="1335" d="M36 0v307h133v835h-133v305h972l234 -234v-979l-234 -234h-972zM541 307h238l105 100v633l-105 102h-238v-835z" />
<glyph unicode="e" horiz-adv-x="1231" d="M36 0v307h158v835h-156v305h1124v-496h-305v191h-300v-294h418v-220h-418v-321h316v194h305v-501h-1142z" />
<glyph unicode="f" horiz-adv-x="1210" d="M36 0v307h158v835h-156v305h1173v-492h-289v196h-357v-305h423v-238h-423v-301h167v-307h-696z" />
<glyph unicode="g" horiz-adv-x="1349" d="M93 234v979l234 234h695l234 -234v-311h-325v146l-103 110h-274l-104 -110v-654l104 -102h290l102 102v147h-263v269h575v-576l-234 -234h-697z" />
<glyph unicode="h" horiz-adv-x="1511" d="M36 0v307h158v835h-156v305h665v-305h-138v-274h381v274h-136v305h664v-305h-156v-835h158v-307h-670v307h138v296h-379v-296h138v-307h-667z" />
<glyph unicode="i" horiz-adv-x="752" d="M36 0v307h153v835h-151v305h677v-305h-154v-835h156v-307h-681z" />
<glyph unicode="j" horiz-adv-x="1208" d="M7 234v347h334v-187l102 -102h129l105 102v748h-176v305h706v-305h-159v-908l-231 -234h-577z" />
<glyph unicode="k" horiz-adv-x="1507" d="M36 0v307h153v835h-151v305h677v-305h-154v-383l392 383h-147v305h685v-305h-138l-329 -316l321 -519h160v-307h-675v307h167l-205 345l-231 -213v-132h156v-307h-681z" />
<glyph unicode="l" horiz-adv-x="1148" d="M36 0v307h153v835h-151v305h690v-305h-165v-835h294v221h292v-528h-1113z" />
<glyph unicode="m" horiz-adv-x="1827" d="M47 0v307h158v835h-156v305h519l345 -577l347 577h519v-305h-156v-835h158v-307h-675v307h152v621l-345 -579l-343 579v-621h149v-307h-672z" />
<glyph unicode="n" horiz-adv-x="1533" d="M38 0v307h160v835h-160v305h492l478 -886v585h-158v301h664v-305h-161v-1142h-318l-492 877v-576h152v-301h-657z" />
<glyph unicode="o" horiz-adv-x="1317" d="M93 234v979l234 234h661l234 -234v-979l-234 -234h-661zM443 398l105 -102h229l102 102v650l-102 105h-229l-105 -105v-650z" />
<glyph unicode="p" horiz-adv-x="1253" d="M36 0v307h153v835h-153v305h948l234 -234v-469l-234 -234h-423v-203h160v-307h-685zM561 764h227l105 97v221l-105 98h-227v-416z" />
<glyph unicode="q" horiz-adv-x="1353" d="M93 234v979l234 234h690l234 -234v-912l-42 -43l216 -218l-218 -218l-216 218l-40 -40h-624zM443 392l105 -100h191l-189 191l216 223l140 -143v479l-102 104h-256l-105 -104v-650z" />
<glyph unicode="r" horiz-adv-x="1391" d="M36 0v307h153v835h-153v305h952l234 -234v-387l-131 -129l144 -147v-243h138v-307h-505v485l-80 85h-236v-263h156v-307h-672zM554 819h232l98 91v159l-103 97h-227v-347z" />
<glyph unicode="s" horiz-adv-x="1264" d="M78 234v280h329v-147l72 -69h280l76 69v154l-78 76h-436l-230 213v403l230 234h603l234 -234v-251h-328v111l-73 78h-241l-75 -78v-122l75 -74h450l221 -214v-429l-234 -234h-641z" />
<glyph unicode="t" horiz-adv-x="1411" d="M36 928v519h1340v-519h-274v214h-209v-835h155v-307h-685v307h158v835h-209v-214h-276z" />
<glyph unicode="u" horiz-adv-x="1475" d="M4 1142v305h664v-305h-149v-750l95 -100h250l93 100v750h-149v305h663v-305h-155v-908l-234 -234h-688l-234 234v908h-156z" />
<glyph unicode="v" horiz-adv-x="1444" d="M0 1142v305h652v-305h-151l220 -652l218 652h-149v305h655v-305h-163l-296 -835h154v-307h-833v307h149l-296 835h-160z" />
<glyph unicode="w" horiz-adv-x="2239" d="M0 1140v307h688v-307h-156l209 -601l196 601h-140v307h648v-307h-143l198 -601l210 601h-158v307h687v-307h-167l-309 -833h169v-307h-759v307h127l-178 566l-183 -566h127v-307h-754v307h164l-309 833h-167z" />
<glyph unicode="x" horiz-adv-x="1598" d="M36 0v307h155l417 428l-390 407h-156v305h688v-305h-158l207 -211l207 211h-156v305h688v-305h-156l-391 -407l416 -428h156v-307h-702v307h156l-218 229l-220 -229h156v-307h-699z" />
<glyph unicode="y" horiz-adv-x="1536" d="M22 1142v305h668v-305h-158l236 -387l236 387h-156v305h666v-305h-161l-400 -594v-241h156v-307h-682v307h154v241l-396 594h-163z" />
<glyph unicode="z" horiz-adv-x="1150" d="M36 0v305l659 824v44h-341v-189h-307v463h1050v-305l-641 -821v-45h354v209h305v-485h-1079z" />
<glyph unicode="{" horiz-adv-x="863" d="M127 565v308l136 135v546l300 300h238v-305h-40l-127 -127v-529l-173 -174l173 -174v-529l127 -127h40v-305h-238l-300 300v546z" />
<glyph unicode="|" horiz-adv-x="560" d="M96 -223v2300h369v-2300h-369z" />
<glyph unicode="}" horiz-adv-x="863" d="M62 -111h40l127 127v529l174 174l-174 174v529l-127 127h-40v305h239l300 -300v-546l136 -135v-308l-136 -135v-546l-300 -300h-239v305z" />
<glyph unicode="~" d="M109 637q66 117 177.5 191t234.5 74q32 0 64.5 -5.5t55 -11t54.5 -20t44.5 -20.5t45.5 -24.5t39 -21.5q11 -6 41 -23t39.5 -22t32.5 -16.5t35 -15.5t31.5 -9.5t36.5 -7.5t37 -2q80 0 142.5 47.5t127.5 146.5l116 -111q-73 -125 -170.5 -196t-212.5 -71q-81 0 -145.5 24 t-179.5 87q-50 29 -81 44.5t-78.5 30t-90.5 14.5q-45 0 -85 -15t-76 -47t-59.5 -59.5t-59.5 -74.5z" />
<glyph unicode="&#xa1;" horiz-adv-x="612" d="M127 1516v338h401v-338h-401zM142 0v1358h370v-1358h-370z" />
<glyph unicode="&#xa2;" horiz-adv-x="1444" d="M93 372v1010l234 234h323v430h187v-430h289l234 -234v-374h-312v201l-104 102h-107v-866h107l104 103v198h312v-374l-234 -234h-289v-365h-187v365h-323zM434 548l105 -103h111v866h-111l-105 -102v-661z" />
<glyph unicode="&#xa3;" horiz-adv-x="1958" d="M0 198l272 209l102 -100h114l124 125v340h-294v308h294v467l307 307h668l305 -307v-450h-289v319l-132 133h-356l-133 -133v-336h409v-308h-409v-465h607v332h305v-639h-1696z" />
<glyph unicode="&#xa4;" horiz-adv-x="1591" d="M24 383l270 269l-14 14v512l14 13l-270 267l219 216l267 -267l4 4h550l11 -11l274 274l218 -216l-274 -274l5 -6v-512l-7 -7l276 -276l-218 -216l-274 276l-11 -11h-550l-2 4l-269 -269zM612 833l49 -49l56 -56h149l102 102v183l-102 104h-147l-107 -109v-175z" />
<glyph unicode="&#xa5;" horiz-adv-x="1990" d="M7 1549v305h814v-305h-213l345 -536h84l348 536h-216v305h814v-305h-238l-354 -536h319v-227h-470l-58 -89h528v-227h-530v-163h218v-307h-808v307h220v163h-532v227h530l-58 89h-472v227h321l-356 536h-236z" />
<glyph unicode="&#xa6;" horiz-adv-x="560" d="M96 -223v1031h369v-1031h-369zM96 1046v1031h369v-1031h-369z" />
<glyph unicode="&#xa7;" horiz-adv-x="1255" d="M109 728v305l120 120l-111 100v388l214 213h572l213 -213v-212h-309v54l-87 89h-160l-91 -89v-72l91 -89h381l200 -193v-308l-120 -120l109 -100v-385l-212 -216h-587l-212 216v209h310v-51l86 -91h174l89 91v69l-89 89l-383 2zM430 886l84 -87h221l86 87v85l-89 86h-216 l-86 -89v-82z" />
<glyph unicode="&#xa8;" horiz-adv-x="1335" d="M256 1696v221l87 84h240l89 -84v-221l-89 -89h-240zM766 1696v221l87 84h240l89 -84v-221l-89 -89h-240z" />
<glyph unicode="&#xa9;" horiz-adv-x="2101" d="M127 185v1362l307 307h1233l308 -307v-1362l-308 -307h-1233zM459 316l133 -133h915l134 133v1100l-134 133h-915l-133 -133v-1100zM561 325v234h111v610h-111v231h710l174 -173v-290l-96 -96l107 -106v-176h100v-234h-378v363l-58 60h-172v-189h114v-234h-501zM951 937 h166l72 65v115l-76 70h-162v-250z" />
<glyph unicode="&#xab;" horiz-adv-x="1564" d="M93 585v276l410 586h414l-478 -688v-69l478 -690h-414zM701 585v276l410 586h414l-479 -688v-69l479 -690h-414z" />
<glyph unicode="&#xac;" d="M138 886v189h1302v-790h-198v601h-1104z" />
<glyph unicode="&#xad;" horiz-adv-x="821" d="M45 719v307h732v-307h-732z" />
<glyph unicode="&#xae;" horiz-adv-x="2101" d="M127 185v1362l307 307h1233l308 -307v-1362l-308 -307h-1233zM459 316l133 -133h915l134 133v1100l-134 133h-915l-133 -133v-1100zM637 499v730l171 173h483l172 -173v-270h-236v136l-74 76h-182l-76 -76v-463l76 -73h182l74 73v136h238v-269l-174 -174h-483z" />
<glyph unicode="&#xaf;" horiz-adv-x="1335" d="M45 1661v307h1021v-307h-1021z" />
<glyph unicode="&#xb0;" horiz-adv-x="977" d="M93 1264v414l176 176h437l176 -176v-414l-176 -175h-437zM347 1389l80 -73h130l75 73v165l-75 78h-130l-80 -78v-165z" />
<glyph unicode="&#xb1;" d="M136 853v189h552v521h198v-521h550v-189h-550v-550h-198v550h-552zM138 -13v187h1300v-187h-1300z" />
<glyph unicode="&#xb4;" horiz-adv-x="1335" d="M523 1683l261 463h247l-254 -463h-254z" />
<glyph unicode="&#xb6;" horiz-adv-x="2143" d="M36 957v590l307 307h1732v-309h-223v-1247h223v-298h-1380v307h211v343h-563zM405 1089l134 -134h367v594h-367l-134 -133v-327zM1276 307h202v1242h-202v-1242z" />
<glyph unicode="&#xb7;" horiz-adv-x="589" d="M58 841v221l87 84h240l89 -84v-221l-89 -89h-240z" />
<glyph unicode="&#xb8;" horiz-adv-x="1335" d="M470 -405l176 89l51 -54h87l53 52v109l-53 53h-89l-105 156h303l120 -122v-283l-120 -123h-301z" />
<glyph unicode="&#xbb;" horiz-adv-x="1564" d="M40 0l479 690v69l-479 688h414l410 -586v-276l-410 -585h-414zM648 0l478 690v69l-478 688h414l409 -586v-276l-409 -585h-414z" />
<glyph unicode="&#xbc;" horiz-adv-x="2063" d="M20 706v240h154v574l-147 -55v176l211 213h227v-908h125v-240h-570zM220 0l1091 1854h325l-1091 -1854h-325zM1153 345v216l494 592h250v-601h129v-207h-129v-125h95v-220h-469v220h102v125h-472zM1414 563h200v241z" />
<glyph unicode="&#xbd;" horiz-adv-x="2183" d="M20 706v240h154v574l-147 -55v176l211 213h227v-908h125v-240h-570zM220 0l1091 1854h325l-1091 -1854h-325zM1293 0v252l535 509v83l-65 64h-131l-65 -64v-103h-258v221l182 187h443l185 -187v-299l-396 -387h410v-276h-840z" />
<glyph unicode="&#xbe;" horiz-adv-x="2437" d="M67 890v210h262v-89l63 -65h173l63 65v129l-58 58h-290v193h279l51 52v106l-65 65h-149l-67 -65v-75h-247v193l185 187h450l185 -187v-242l-107 -114l122 -129v-292l-185 -184h-480zM594 0l1091 1854h325l-1091 -1854h-325zM1527 345v216l494 592h250v-601h129v-207h-129 v-125h95v-220h-469v220h102v125h-472zM1788 563h200v241z" />
<glyph unicode="&#xbf;" horiz-adv-x="1429" d="M154 305v443l416 418v236h401v-325l-450 -456v-158l133 -131h214l134 131v180h369v-336l-307 -307h-603zM570 1516v338h401v-338h-401z" />
<glyph unicode="&#xc0;" horiz-adv-x="1978" d="M0 0v307h227l492 1242h-211v305h968v-305h-216l492 -1242h227v-307h-801v292h209l-67 178h-661l-67 -178h207v-292h-799zM761 748h457l-230 617zM810 2553h247l261 -463h-254z" />
<glyph unicode="&#xc1;" horiz-adv-x="1978" d="M0 0v307h227l492 1242h-211v305h968v-305h-216l492 -1242h227v-307h-801v292h209l-67 178h-661l-67 -178h207v-292h-799zM761 748h457l-230 617zM826 2028l260 463h247l-253 -463h-254z" />
<glyph unicode="&#xc2;" horiz-adv-x="1978" d="M0 0v307h227l492 1242h-211v305h968v-305h-216l492 -1242h227v-307h-801v292h209l-67 178h-661l-67 -178h207v-292h-799zM572 2046l263 463h318l254 -463h-247l-172 307l-173 -307h-243zM761 748h457l-230 617z" />
<glyph unicode="&#xc3;" horiz-adv-x="1978" d="M0 0v307h227l492 1242h-211v305h968v-305h-216l492 -1242h227v-307h-801v292h209l-67 178h-661l-67 -178h207v-292h-799zM349 1999v294l170 171h436l240 -238h130l69 67v169h251v-294l-171 -169h-434l-241 238h-129l-71 -69v-169h-250zM761 748h457l-230 617z" />
<glyph unicode="&#xc4;" horiz-adv-x="1978" d="M0 0v307h227l492 1242h-211v305h968v-305h-216l492 -1242h227v-307h-801v292h209l-67 178h-661l-67 -178h207v-292h-799zM525 2104v220l87 85h241l89 -85v-220l-89 -89h-241zM761 748h457l-230 617zM1035 2104v220l87 85h240l89 -85v-220l-89 -89h-240z" />
<glyph unicode="&#xc5;" horiz-adv-x="1978" d="M0 0v307h227l492 1242h-211v305h968v-305h-216l492 -1242h227v-307h-801v292h209l-67 178h-661l-67 -178h207v-292h-799zM719 2115v285l120 120h301l120 -120v-285l-120 -123h-301zM761 748h457l-230 617zM895 2204l53 -51h87l51 51v109l-51 51h-87l-53 -51v-109z" />
<glyph unicode="&#xc6;" horiz-adv-x="2593" d="M0 0v307h227l623 1242h-218v305h1886v-572h-305v267h-506v-454h552v-289h-552v-499h526v252h305v-559h-1416v307h216v503h-503l-254 -518h207v-292h-788zM971 1086h367v463h-138z" />
<glyph unicode="&#xc7;" horiz-adv-x="1593" d="M127 307v1240l307 307h768l307 -307v-403h-345v272l-131 133h-403l-134 -133v-977l134 -132h403l133 132v262h346v-394l-308 -307h-242l107 -109v-283l-121 -122h-300l-123 122l176 89l51 -53h87l54 51v109l-54 54h-89l-96 142h-220z" />
<glyph unicode="&#xc8;" horiz-adv-x="1540" d="M67 0v307h216v1242h-214v305h1394v-572h-305v267h-506v-454h552v-289h-552v-499h526v252h305v-559h-1416zM641 2553h247l261 -463h-254z" />
<glyph unicode="&#xc9;" horiz-adv-x="1540" d="M67 0v307h216v1242h-214v305h1394v-572h-305v267h-506v-454h552v-289h-552v-499h526v252h305v-559h-1416zM657 2028l260 463h247l-254 -463h-253z" />
<glyph unicode="&#xca;" horiz-adv-x="1540" d="M67 0v307h216v1242h-214v305h1394v-572h-305v267h-506v-454h552v-289h-552v-499h526v252h305v-559h-1416zM403 2046l263 463h318l254 -463h-247l-172 307l-173 -307h-243z" />
<glyph unicode="&#xcb;" horiz-adv-x="1540" d="M67 0v307h216v1242h-214v305h1394v-572h-305v267h-506v-454h552v-289h-552v-499h526v252h305v-559h-1416zM356 2104v220l87 85h240l89 -85v-220l-89 -89h-240zM866 2104v220l87 85h240l89 -85v-220l-89 -89h-240z" />
<glyph unicode="&#xcc;" horiz-adv-x="899" d="M67 0v307h211v1242h-209v305h788v-305h-209v-1242h211v-307h-792zM283 2556h247l260 -463h-254z" />
<glyph unicode="&#xcd;" horiz-adv-x="899" d="M67 0v307h211v1242h-209v305h788v-305h-209v-1242h211v-307h-792zM298 2030l261 463h247l-254 -463h-254z" />
<glyph unicode="&#xce;" horiz-adv-x="899" d="M45 2048l262 463h319l253 -463h-247l-171 307l-174 -307h-242zM67 0v307h211v1242h-209v305h788v-305h-209v-1242h211v-307h-792z" />
<glyph unicode="&#xcf;" horiz-adv-x="899" d="M-2 2106v220l87 85h240l89 -85v-220l-89 -89h-240zM67 0v307h211v1242h-209v305h788v-305h-209v-1242h211v-307h-792zM508 2106v220l86 85h241l89 -85v-220l-89 -89h-241z" />
<glyph unicode="&#xd0;" horiz-adv-x="1638" d="M45 719v307h204v523h-182v305h1137l308 -307v-1240l-308 -307h-1137v307h182v412h-204zM619 307h396l134 132v977l-134 133h-396v-523h158v-307h-158v-412z" />
<glyph unicode="&#xd1;" horiz-adv-x="1914" d="M67 0v307h216v1242h-214v305h568l670 -1202v897h-212v305h788v-305h-213v-1549h-354l-670 1202v-895h207v-307h-786zM287 2026v294l169 171h437l240 -238h129l69 67v169h252v-294l-172 -169h-434l-240 238h-129l-72 -69v-169h-249z" />
<glyph unicode="&#xd2;" horiz-adv-x="1625" d="M107 307v1240l307 307h797l307 -307v-1240l-307 -307h-797zM476 439l134 -132h405l131 132v977l-131 133h-405l-134 -133v-977zM634 2553h248l260 -463h-254z" />
<glyph unicode="&#xd3;" horiz-adv-x="1625" d="M107 307v1240l307 307h797l307 -307v-1240l-307 -307h-797zM476 439l134 -132h405l131 132v977l-131 133h-405l-134 -133v-977zM650 2028l260 463h248l-254 -463h-254z" />
<glyph unicode="&#xd4;" horiz-adv-x="1625" d="M107 307v1240l307 307h797l307 -307v-1240l-307 -307h-797zM396 2046l263 463h318l254 -463h-247l-171 307l-174 -307h-243zM476 439l134 -132h405l131 132v977l-131 133h-405l-134 -133v-977z" />
<glyph unicode="&#xd5;" horiz-adv-x="1625" d="M107 307v1240l307 307h797l307 -307v-1240l-307 -307h-797zM174 1999v294l169 171h436l241 -238h129l69 67v169h251v-294l-171 -169h-434l-241 238h-129l-71 -69v-169h-249zM476 439l134 -132h405l131 132v977l-131 133h-405l-134 -133v-977z" />
<glyph unicode="&#xd6;" horiz-adv-x="1625" d="M107 307v1240l307 307h797l307 -307v-1240l-307 -307h-797zM349 2104v220l87 85h241l89 -85v-220l-89 -89h-241zM476 439l134 -132h405l131 132v977l-131 133h-405l-134 -133v-977zM859 2104v220l87 85h241l89 -85v-220l-89 -89h-241z" />
<glyph unicode="&#xd7;" d="M142 171l512 530l-507 530l138 138l505 -528l501 530l140 -133l-514 -535l512 -532l-140 -138l-505 532l-506 -532z" />
<glyph unicode="&#xd8;" horiz-adv-x="1665" d="M107 307v1240l307 307h703l123 263h278l-180 -390l180 -180v-1240l-307 -307h-675l-124 -267h-278l173 374zM476 472l501 1077h-367l-134 -133v-944zM679 307h336l131 132v877z" />
<glyph unicode="&#xd9;" horiz-adv-x="1832" d="M20 1549v305h781v-305h-196v-1110l134 -132h356l132 132v1110h-199v305h784v-305h-216v-1242l-307 -307h-748l-307 307v1242h-214zM735 2553h247l260 -463h-254z" />
<glyph unicode="&#xda;" horiz-adv-x="1832" d="M20 1549v305h781v-305h-196v-1110l134 -132h356l132 132v1110h-199v305h784v-305h-216v-1242l-307 -307h-748l-307 307v1242h-214zM750 2028l261 463h247l-254 -463h-254z" />
<glyph unicode="&#xdb;" horiz-adv-x="1832" d="M20 1549v305h781v-305h-196v-1110l134 -132h356l132 132v1110h-199v305h784v-305h-216v-1242l-307 -307h-748l-307 307v1242h-214zM496 2046l263 463h318l254 -463h-247l-171 307l-174 -307h-243z" />
<glyph unicode="&#xdc;" horiz-adv-x="1832" d="M20 1549v305h781v-305h-196v-1110l134 -132h356l132 132v1110h-199v305h784v-305h-216v-1242l-307 -307h-748l-307 307v1242h-214zM450 2104v220l86 85h241l89 -85v-220l-89 -89h-241zM959 2104v220l87 85h241l89 -85v-220l-89 -89h-241z" />
<glyph unicode="&#xdd;" horiz-adv-x="1990" d="M7 1549v305h814v-305h-213l387 -603l390 603h-216v305h814v-305h-238l-565 -854v-388h218v-307h-808v307h220v388l-567 854h-236zM828 2028l261 463h247l-254 -463h-254z" />
<glyph unicode="&#xde;" horiz-adv-x="1553" d="M67 0v307h211v1242h-211v305h581v-273h563l307 -308v-592l-307 -307h-563v-374h-581zM648 679h367l134 134v329l-134 134h-367v-597z" />
<glyph unicode="&#xe0;" horiz-adv-x="1520" d="M0 0v307h138l354 835h-145v305h826v-305h-145l354 -835h138v-307h-625v260h131l-42 114h-448l-42 -114h129v-260h-623zM581 2146h247l261 -463h-254zM614 590h290l-145 392z" />
<glyph unicode="&#xe1;" horiz-adv-x="1520" d="M0 0v307h138l354 835h-145v305h826v-305h-145l354 -835h138v-307h-625v260h131l-42 114h-448l-42 -114h129v-260h-623zM597 1621l260 463h247l-254 -463h-253zM614 590h290l-145 392z" />
<glyph unicode="&#xe2;" horiz-adv-x="1520" d="M0 0v307h138l354 835h-145v305h826v-305h-145l354 -835h138v-307h-625v260h131l-42 114h-448l-42 -114h129v-260h-623zM343 1638l262 463h319l254 -463h-247l-172 308l-174 -308h-242zM614 590h290l-145 392z" />
<glyph unicode="&#xe3;" horiz-adv-x="1520" d="M0 0v307h138l354 835h-145v305h826v-305h-145l354 -835h138v-307h-625v260h131l-42 114h-448l-42 -114h129v-260h-623zM120 1592v293l169 172h437l240 -238h129l69 66v170h252v-294l-172 -169h-434l-240 238h-129l-71 -69v-169h-250zM614 590h290l-145 392z" />
<glyph unicode="&#xe4;" horiz-adv-x="1520" d="M0 0v307h138l354 835h-145v305h826v-305h-145l354 -835h138v-307h-625v260h131l-42 114h-448l-42 -114h129v-260h-623zM296 1696v221l87 84h240l89 -84v-221l-89 -89h-240zM614 590h290l-145 392zM806 1696v221l87 84h240l89 -84v-221l-89 -89h-240z" />
<glyph unicode="&#xe5;" horiz-adv-x="1520" d="M0 0v307h138l354 835h-145v305h826v-305h-145l354 -835h138v-307h-625v260h131l-42 114h-448l-42 -114h129v-260h-623zM490 1707v285l120 121h300l121 -121v-285l-121 -122h-300zM614 590h290l-145 392zM666 1796l53 -51h87l51 51v110l-51 51h-87l-53 -51v-110z" />
<glyph unicode="&#xe6;" horiz-adv-x="2016" d="M0 0v307h138l381 835h-138v305h1567v-496h-305v191h-301v-303h419v-211h-419v-323h316v196h305v-501h-1142v305h158v323h-349l-136 -321h160v-307h-654zM715 826h264v316h-129z" />
<glyph unicode="&#xe7;" horiz-adv-x="1291" d="M93 234v979l234 234h644l233 -234v-360h-311v187l-105 102h-249l-105 -102v-630l105 -103h249l105 103v182h311v-358l-233 -234h-161l107 -109v-283l-120 -122h-301l-122 122l176 89l51 -53h87l53 51v109l-53 54h-89l-96 142h-176z" />
<glyph unicode="&#xe8;" horiz-adv-x="1231" d="M36 0v307h158v835h-156v305h1124v-496h-305v191h-300v-294h418v-220h-418v-321h316v194h305v-501h-1142zM436 2146h247l261 -463h-254z" />
<glyph unicode="&#xe9;" horiz-adv-x="1231" d="M36 0v307h158v835h-156v305h1124v-496h-305v191h-300v-294h418v-220h-418v-321h316v194h305v-501h-1142zM452 1621l260 463h247l-253 -463h-254z" />
<glyph unicode="&#xea;" horiz-adv-x="1231" d="M36 0v307h158v835h-156v305h1124v-496h-305v191h-300v-294h418v-220h-418v-321h316v194h305v-501h-1142zM198 1638l263 463h318l254 -463h-247l-172 308l-173 -308h-243z" />
<glyph unicode="&#xeb;" horiz-adv-x="1231" d="M36 0v307h158v835h-156v305h1124v-496h-305v191h-300v-294h418v-220h-418v-321h316v194h305v-501h-1142zM151 1696v221l87 84h241l89 -84v-221l-89 -89h-241zM661 1696v221l87 84h240l89 -84v-221l-89 -89h-240z" />
<glyph unicode="&#xec;" horiz-adv-x="790" d="M67 0v307h153v835h-151v305h677v-305h-154v-835h156v-307h-681zM227 2146h247l261 -463h-254z" />
<glyph unicode="&#xed;" horiz-adv-x="790" d="M67 0v307h153v835h-151v305h677v-305h-154v-835h156v-307h-681zM243 1621l260 463h247l-254 -463h-253z" />
<glyph unicode="&#xee;" horiz-adv-x="790" d="M-11 1638l263 463h318l254 -463h-247l-172 308l-173 -308h-243zM67 0v307h153v835h-151v305h677v-305h-154v-835h156v-307h-681z" />
<glyph unicode="&#xef;" horiz-adv-x="790" d="M-58 1696v221l87 84h240l89 -84v-221l-89 -89h-240zM67 0v307h153v835h-151v305h677v-305h-154v-835h156v-307h-681zM452 1696v221l87 84h240l89 -84v-221l-89 -89h-240z" />
<glyph unicode="&#xf0;" horiz-adv-x="1349" d="M49 0v307h134v265h-132v227h132v343h-134v305h973l234 -234v-979l-234 -234h-973zM554 307h238l105 100v633l-105 102h-238v-343h183v-227h-183v-265z" />
<glyph unicode="&#xf1;" horiz-adv-x="1533" d="M38 0v307h160v835h-160v305h492l478 -886v585h-158v301h664v-305h-161v-1142h-318l-492 877v-576h152v-301h-657zM127 1592v293l169 172h436l241 -238h129l69 66v170h251v-294l-171 -169h-434l-240 238h-130l-71 -69v-169h-249z" />
<glyph unicode="&#xf2;" horiz-adv-x="1317" d="M93 234v979l234 234h661l234 -234v-979l-234 -234h-661zM443 398l105 -102h229l102 102v650l-102 105h-229l-105 -105v-650zM501 2146h247l260 -463h-253z" />
<glyph unicode="&#xf3;" horiz-adv-x="1317" d="M93 234v979l234 234h661l234 -234v-979l-234 -234h-661zM443 398l105 -102h229l102 102v650l-102 105h-229l-105 -105v-650zM516 1621l261 463h247l-254 -463h-254z" />
<glyph unicode="&#xf4;" horiz-adv-x="1317" d="M93 234v979l234 234h661l234 -234v-979l-234 -234h-661zM263 1638l262 463h319l253 -463h-247l-171 308l-174 -308h-242zM443 398l105 -102h229l102 102v650l-102 105h-229l-105 -105v-650z" />
<glyph unicode="&#xf5;" horiz-adv-x="1317" d="M40 1592v293l169 172h437l240 -238h129l69 66v170h252v-294l-172 -169h-434l-240 238h-129l-72 -69v-169h-249zM93 234v979l234 234h661l234 -234v-979l-234 -234h-661zM443 398l105 -102h229l102 102v650l-102 105h-229l-105 -105v-650z" />
<glyph unicode="&#xf6;" horiz-adv-x="1317" d="M93 234v979l234 234h661l234 -234v-979l-234 -234h-661zM216 1696v221l87 84h240l89 -84v-221l-89 -89h-240zM443 398l105 -102h229l102 102v650l-102 105h-229l-105 -105v-650zM726 1696v221l87 84h240l89 -84v-221l-89 -89h-240z" />
<glyph unicode="&#xf7;" d="M138 632v189h1302v-189h-1302zM643 247q0 66 43 111t106 45h5q54 0 98 -46.5t44 -109.5q0 -60 -46 -109t-101 -49q-62 0 -105.5 48t-43.5 110zM648 1207q0 61 45 108t102 47q60 0 103.5 -46.5t43.5 -108.5q0 -64 -43.5 -109t-103.5 -45h-5q-55 0 -98.5 46t-43.5 108z" />
<glyph unicode="&#xf8;" horiz-adv-x="1333" d="M93 234v979l234 234h581l58 122h205l-94 -196l161 -160v-979l-234 -234h-577l-57 -122h-205l91 193zM443 465l325 688h-220l-105 -105v-583zM568 296h224l103 102v588z" />
<glyph unicode="&#xf9;" horiz-adv-x="1475" d="M4 1142v305h664v-305h-149v-750l95 -100h250l93 100v750h-149v305h663v-305h-155v-908l-234 -234h-688l-234 234v908h-156zM559 2146h247l260 -463h-253z" />
<glyph unicode="&#xfa;" horiz-adv-x="1475" d="M4 1142v305h664v-305h-149v-750l95 -100h250l93 100v750h-149v305h663v-305h-155v-908l-234 -234h-688l-234 234v908h-156zM574 1621l261 463h247l-254 -463h-254z" />
<glyph unicode="&#xfb;" horiz-adv-x="1475" d="M4 1142v305h664v-305h-149v-750l95 -100h250l93 100v750h-149v305h663v-305h-155v-908l-234 -234h-688l-234 234v908h-156zM321 1638l262 463h319l253 -463h-247l-171 308l-174 -308h-242z" />
<glyph unicode="&#xfc;" horiz-adv-x="1475" d="M4 1142v305h664v-305h-149v-750l95 -100h250l93 100v750h-149v305h663v-305h-155v-908l-234 -234h-688l-234 234v908h-156zM274 1696v221l87 84h240l89 -84v-221l-89 -89h-240zM784 1696v221l86 84h241l89 -84v-221l-89 -89h-241z" />
<glyph unicode="&#xfd;" horiz-adv-x="1536" d="M22 1142v305h668v-305h-158l236 -387l236 387h-156v305h666v-305h-161l-400 -594v-241h156v-307h-682v307h154v241l-396 594h-163zM605 1621l261 463h247l-254 -463h-254z" />
<glyph unicode="&#xfe;" horiz-adv-x="1253" d="M36 0v307h153v835h-153v305h525v-218h423l234 -234v-470l-234 -233h-423v-292h-525zM561 548h227l105 95v221l-105 98h-227v-414z" />
<glyph unicode="&#xff;" horiz-adv-x="1536" d="M22 1142v305h668v-305h-158l236 -387l236 387h-156v305h666v-305h-161l-400 -594v-241h156v-307h-682v307h154v241l-396 594h-163zM305 1696v221l87 84h240l89 -84v-221l-89 -89h-240zM815 1696v221l87 84h240l89 -84v-221l-89 -89h-240z" />
<glyph unicode="&#x152;" horiz-adv-x="2364" d="M127 307v1240l307 307h1852v-572h-305v267h-505v-454h552v-289h-552v-499h525v252h305v-559h-1872zM496 439l134 -132h476v1242h-476l-134 -133v-977z" />
<glyph unicode="&#x153;" horiz-adv-x="1889" d="M93 234v979l234 234h1494v-496h-305v191h-301v-294h419v-220h-419v-321h317v194h305v-501h-1510zM441 407l104 -100h308v835h-156v2h-152l-104 -104v-633z" />
<glyph unicode="&#x178;" horiz-adv-x="1990" d="M7 1549v305h814v-305h-213l387 -603l390 603h-216v305h814v-305h-238l-565 -854v-388h218v-307h-808v307h220v388l-567 854h-236zM528 2104v220l86 85h241l89 -85v-220l-89 -89h-241zM1037 2104v220l87 85h241l89 -85v-220l-89 -89h-241z" />
<glyph unicode="&#x2c6;" horiz-adv-x="1335" d="M269 1685l263 463h318l254 -463h-247l-171 307l-174 -307h-243z" />
<glyph unicode="&#x2dc;" horiz-adv-x="1335" d="M24 1592v293l170 172h436l240 -238h130l69 66v170h251v-294l-171 -169h-434l-241 238h-129l-71 -69v-169h-250z" />
<glyph unicode="&#x2000;" horiz-adv-x="1278" />
<glyph unicode="&#x2001;" horiz-adv-x="2556" />
<glyph unicode="&#x2002;" horiz-adv-x="1278" />
<glyph unicode="&#x2003;" horiz-adv-x="2556" />
<glyph unicode="&#x2004;" horiz-adv-x="852" />
<glyph unicode="&#x2005;" horiz-adv-x="639" />
<glyph unicode="&#x2006;" horiz-adv-x="426" />
<glyph unicode="&#x2007;" horiz-adv-x="426" />
<glyph unicode="&#x2008;" horiz-adv-x="319" />
<glyph unicode="&#x2009;" horiz-adv-x="511" />
<glyph unicode="&#x200a;" horiz-adv-x="142" />
<glyph unicode="&#x2010;" horiz-adv-x="821" d="M45 719v307h732v-307h-732z" />
<glyph unicode="&#x2011;" horiz-adv-x="821" d="M45 719v307h732v-307h-732z" />
<glyph unicode="&#x2012;" horiz-adv-x="821" d="M45 719v307h732v-307h-732z" />
<glyph unicode="&#x2013;" horiz-adv-x="1110" d="M45 719v307h1021v-307h-1021z" />
<glyph unicode="&#x2014;" horiz-adv-x="1377" d="M45 719v307h1288v-307h-1288z" />
<glyph unicode="&#x2018;" horiz-adv-x="507" d="M58 1509v345h387v-345h-124l22 -336h-78z" />
<glyph unicode="&#x2019;" horiz-adv-x="507" d="M62 1509v345h388v-345l-207 -336h-78l22 336h-125z" />
<glyph unicode="&#x201a;" horiz-adv-x="507" d="M62 0v345h388v-345l-207 -336h-78l22 336h-125z" />
<glyph unicode="&#x201c;" horiz-adv-x="1010" d="M60 1509v345h387v-345h-124l22 -336h-78zM561 1509v345h387v-345h-124l22 -336h-78z" />
<glyph unicode="&#x201d;" horiz-adv-x="1010" d="M62 1509v345h388v-345l-207 -336h-78l22 336h-125zM563 1509v345h388v-345l-207 -336h-78l22 336h-125z" />
<glyph unicode="&#x201e;" horiz-adv-x="1010" d="M62 0v345h388v-345l-207 -336h-78l22 336h-125zM563 0v345h388v-345l-207 -336h-78l22 336h-125z" />
<glyph unicode="&#x2022;" horiz-adv-x="1030" d="M93 906q0 181 115.5 301t305.5 120q82 0 156.5 -27.5t134 -78.5t95 -132.5t35.5 -182.5q0 -182 -115.5 -302.5t-305.5 -120.5q-82 0 -156.5 27.5t-134 78.5t-95 133.5t-35.5 183.5z" />
<glyph unicode="&#x2026;" horiz-adv-x="1515" d="M58 0v378h378v-378h-378zM570 0v378h378v-378h-378zM1082 0v378h378v-378h-378z" />
<glyph unicode="&#x202f;" horiz-adv-x="511" />
<glyph unicode="&#x2039;" horiz-adv-x="954" d="M93 585v276l410 586h414l-478 -688v-69l478 -690h-414z" />
<glyph unicode="&#x203a;" horiz-adv-x="954" d="M38 0l478 690v69l-478 688h414l409 -586v-276l-409 -585h-414z" />
<glyph unicode="&#x205f;" horiz-adv-x="639" />
<glyph unicode="&#x20ac;" horiz-adv-x="1711" d="M22 672v227h223v101h-223v227h223v320l307 307h768l307 -307v-403h-345v272l-131 133h-403l-134 -133v-189h383v-227h-383v-101h383v-227h-383v-233l134 -132h403l133 132v262h345v-394l-307 -307h-770l-307 307v365h-223z" />
<glyph unicode="&#x2122;" horiz-adv-x="1743" d="M45 1514v340h719v-340h-154v180h-120v-438h124v-163h-420v163h127v438h-123v-180h-153zM772 1093v163h130v438h-127v160h265l195 -280l194 280h267v-160h-127v-438h130v-163h-412v163h118v336l-170 -239l-166 239v-336h115v-163h-412z" />
<glyph unicode="&#x25fc;" horiz-adv-x="1446" d="M0 0v1447h1447v-1447h-1447z" />
</font>
</defs>
</svg>
